<svg id="Layer_1" data-name="Layer 1" xmlns="http://www.w3.org/2000/svg" width="80" height="40" viewBox="0 0 1157.75 674.22"><defs><style>.cls-1{font-size:162px;}.cls-1,.cls-3,.cls-4,.cls-6{fill:#bca42c;}.cls-1,.cls-4,.cls-6{font-family:Handycheera;}.cls-2,.cls-5{fill:#993ddf;}.cls-4{font-size:162.75px;}.cls-5{letter-spacing:0em;}.cls-6{font-size:63px;}.cls-7{fill:#540754;}</style></defs><title>shugaplum</title><text class="cls-1" transform="translate(374.44 322.51)">Cak<tspan class="cls-2" x="251.46" y="0">es</tspan></text><path class="cls-2" d="M420.16,630.2c49.73,107.94,172.07,162.93,282.91,129,51.52-15.79,93-45.82,123.82-90.14,22.35-32.11,35.37-67.74,40-108.13-23.44,15.27-48.56,21.63-73.84,27.73-2.46.59-5.12,4-6.07,6.61-7.76,21.69-13.52,44.25-23,65.14-15.87,35-41.54,61-79,72.82-50.69,16.06-97.06-14.55-103.76-67.36-2.81-22.13.55-43.3,7.8-64.74-15.26-1.42-30-2.49-44.61-4.19-37.76-4.38-75.21-10.46-110.49-25.46a104.29,104.29,0,0,1-23.28-13.53C393.1,544.24,393,527.5,412,516a200.56,200.56,0,0,1,48.69-20.76c41.58-11.84,84.5-15.35,127.59-16.61,10.2-.29,20.41,0,30.61-.28-47.11,3.2-94.36,6.21-140.21,18.4a285.87,285.87,0,0,0-56.35,21.1c-22.65,11.57-22,26.39.41,38.64,25,13.68,52.57,19.61,80.31,24.49,51.22,9,103,11,154.77,9.21,54.68-1.95,109.14-6.6,162-21.91,11.63-3.37,22.89-8.35,33.84-13.6,7.45-3.58,13.59-9,14.94-18.42.28-2,5.28-5.24,6.52-4.63,2.47,1.19,5.56,4.8,5.38,7.18-1.25,16.12-1.89,32.48-5.29,48.2C853.05,689.47,773.27,762.45,668.77,776.72,567.29,790.58,461.69,730.32,422.13,636,421.35,634.1,420.81,632.12,420.16,630.2Zm298.55-30.92c-16.81.86-32.16,1.52-47.5,2.58-2.19.15-5.16,1.68-6.25,3.49-17.26,28.71-32.77,58.29-41.84,90.76a78.41,78.41,0,0,0-2.82,20.38c0,6.69,3.65,8.7,9.43,5.37a69.23,69.23,0,0,0,14.53-11C676.07,678.81,697.67,639.92,718.71,599.28Zm63.53-7.45c-18.82-1.57-32.22,3.87-35.72,23.61a12.81,12.81,0,0,1-1.22,2.93c-21.57,46.86-47.1,90.28-97.32,112.88,6.45.54,13,1.26,19.35.42,31.5-4.18,55.62-21.06,74.83-45.43C764,658.48,773.68,625.42,782.24,591.83ZM748.87,596c-5.47.49-9.41,1.13-13.35,1.13-7.69,0-11.78,3.57-15.59,10.51-12.65,23-25.8,45.74-39.94,67.84-12.07,18.85-26.39,36.12-46,51,18.61-1.12,31.66-9.65,43.7-19.78C712.56,677.34,732.08,638.14,748.87,596ZM604.78,707.69c-7.21-39.45,6.52-72.37,22.84-106.24-9.75,0-18.17.34-26.55-.12-4.79-.27-7.06,1.23-8.57,5.8-6.11,18.4-8.71,37.18-6.28,56.44C588.2,679.27,593.3,693.81,604.78,707.69Zm9.37,6.73c6.44-41.67,26.46-76.52,45.92-112.34-7.55,0-13.68.39-19.73-.12-5.08-.44-7.57,1.68-9.78,5.95-10.07,19.42-18.18,39.56-21.37,61.28C607,684.1,606,699.16,614.15,714.42Z" transform="translate(-18.31 -104.48)"/><path class="cls-2" d="M598.21,578.74c12.33-15.18,23.35-31.72,37.27-45.26,27.41-26.63,56.43-51.59,84.78-77.24,11.43-10.33,23.19-20.31,34.23-31.05,16.76-16.31,31.11-34.19,42.68-55,35.05-63.1,71.74-125.3,107.89-187.79,1.53-2.64,4-6.44,6.29-6.61,8-.57,9.9-6.73,13.19-12,4.83-7.7,10.86-9.14,19-4.76,2.33,1.25,4.63,2.59,6.88,4,7.42,4.62,9.24,10.56,5.25,18.23-3,5.7-7.44,10.66-3.79,18.11,1,2-1.27,6.05-2.8,8.72-35.86,62.36-70.86,125.23-108.16,186.72-18.13,29.89-26.15,62.32-33.18,95.49-4.78,22.58-8.57,45.37-13,68a13.94,13.94,0,0,1-5.26,8C799.77,511.39,804.3,455.35,828.52,404l-2.1-1.15c-1.48,2.35-3.39,4.53-4.38,7.07-11.75,30.4-23.74,60.71-34.9,91.33-7.72,21.17-14.16,42.81-21.41,64.16-.86,2.55-3.21,4.59-4.87,6.86l-2.92-1.67L813.85,409l.57,0c-2.87,5.44-6,10.77-8.56,16.34q-33.23,71.44-66.37,142.92c-1.36,2.9-3.8,5.3-5.74,7.93l-3-1.78,82.67-178.18c-2.22-2.63-4.37-3.14-7.49,1.4q-61.05,89-122.48,177.73c-1.49,2.15-4.09,3.54-6.18,5.28l-2.52-2.37q63.06-90,126.13-180l-2-1.42c-8,10.5-15.7,21.18-23.95,31.44-8.49,10.56-17.36,20.81-26.26,31-9.07,10.42-18.4,20.61-27.59,30.93-9,10.12-18.11,20.15-26.93,30.44s-17,21.13-26,31.19c-8.63,9.56-13.37,22.69-24.67,29.8l-2.54-2.1c10.22-13.41,19.81-27.35,30.77-40.13,29.56-34.49,60-68.24,89.46-102.79,12-14.1,22.57-29.5,33.68-44.39,1.34-1.8,2-4.09,3.32-6.84-2.1.12-2.83,0-3,.19-23.85,35.65-57.08,62-89,89.56-29.75,25.71-60,50.87-84.64,81.86-5.11,6.44-9.48,13.46-14.44,20-1.46,1.94-3.8,3.21-5.74,4.78ZM820.16,393.08c10.47,7.39,12.22,7,18.19-3.33q52.27-90.61,104.52-181.23c6-10.41,5.48-12.06-6.14-17.65Q878.46,291.94,820.16,393.08ZM921.7,181.92c-6.58-4.1-9.63-1.48-12.39,3.36-12.75,22.34-25.65,44.59-38.5,66.87q-34.35,59.61-68.76,119.2c-2.94,5.09-4.63,9.55,2.9,13.1Zm.16-6.27,25,14.35c1.69-7.33,5.57-14.32,3.71-19.06-1.7-4.35-10.15-9.24-14.64-8.43C930.94,163.41,927,170.48,921.86,175.65Z" transform="translate(-18.31 -104.48)"/><path class="cls-3" d="M236.83,322.67c-8.05.06-21,6-23.25,12.22-15,40.93-45.71,34.4-77.55,29.3a487.27,487.27,0,0,0-65.17-5.89c-30.55-.76-51.92,11.5-52.53,45.61-.61,33.43,20.1,48.22,50,49.69,23.16,1.14,46.58-2.21,69.83-4.19,29.53-2.51,60.57-10.79,69.6,32.82,1.32,6.4,17.15,13.2,26.68,13.87,30.66,2.14,61.51,1.5,92.29,1.94l1.71-12.61c-26.08-.78-52.38.17-78.13-3.15-11.14-1.44-29.89-11.21-30.24-18-2.24-42.61-.27-85.44.31-128.92L398,337.33q.06-6.58.11-13.18C344.36,323.47,290.59,322.25,236.83,322.67Z" transform="translate(-18.31 -104.48)"/><path class="cls-2" d="M1130.9,379.28c-29.35-1.19-59,4.83-88.4,4.27-15.92-.3-42.36-3.64-45.85-12.65-26.17-67.67-77.74-23.81-117.9-26.45l98.08,7.68c-1.14,50.51-2.17,96.35-3.23,143.45L811,495.28q-.07,6.27-.14,12.54c48.82.78,97.64,2.15,146.45,1.76,8.09-.07,21.21-6.09,23.37-12.35,15.53-45,49.47-33.09,81.73-29.15,21.62,2.64,43.47,4.84,65.21,4.82,29,0,47.26-14,48.36-45.09S1159.27,380.43,1130.9,379.28Z" transform="translate(-18.31 -104.48)"/><text class="cls-4" transform="translate(91.75 150.43)">Shuga<tspan class="cls-5" x="415.13" y="0">Plum</tspan></text><text class="cls-6" transform="translate(604.43 222.91)">&amp;<tspan class="cls-7" x="44.14" y="0"> </tspan><tspan class="cls-2" x="59.77" y="0">More</tspan></text><polygon class="cls-3" points="813.44 334.8 829.61 345.86 876.5 277.31 852.77 277.31 813.44 334.8"/><polygon class="cls-2" points="838.47 351.13 854.63 362.19 912.7 277.31 888.97 277.31 838.47 351.13"/><polygon class="cls-3" points="864.59 366.36 880.75 377.42 949.24 277.31 925.51 277.31 864.59 366.36"/><polygon class="cls-2" points="201.57 310.4 211.62 317.27 240.79 274.65 226.03 274.65 201.57 310.4"/><polygon class="cls-3" points="217.13 320.55 227.19 327.43 263.3 274.65 248.54 274.65 217.13 320.55"/><polygon class="cls-2" points="233.38 330.02 243.43 336.9 286.02 274.65 271.26 274.65 233.38 330.02"/></svg>